<svg width="16" height="16" viewBox="0 0 16 16" fill="none" xmlns="http://www.w3.org/2000/svg">
<path d="M10.6667 2V4.66667M5.33332 2V4.66667M2.66666 7.33333H13.3333M2.66666 4.66667C2.66666 4.31304 2.80713 3.97391 3.05718 3.72386C3.30723 3.47381 3.64637 3.33333 3.99999 3.33333H12C12.3536 3.33333 12.6927 3.47381 12.9428 3.72386C13.1928 3.97391 13.3333 4.31304 13.3333 4.66667V12.6667C13.3333 13.0203 13.1928 13.3594 12.9428 13.6095C12.6927 13.8595 12.3536 14 12 14H3.99999C3.64637 14 3.30723 13.8595 3.05718 13.6095C2.80713 13.3594 2.66666 13.0203 2.66666 12.6667V4.66667ZM7.33332 10.6667C7.33332 10.8435 7.40356 11.013 7.52859 11.1381C7.65361 11.2631 7.82318 11.3333 7.99999 11.3333C8.1768 11.3333 8.34637 11.2631 8.47139 11.1381C8.59642 11.013 8.66666 10.8435 8.66666 10.6667C8.66666 10.4899 8.59642 10.3203 8.47139 10.1953C8.34637 10.0702 8.1768 10 7.99999 10C7.82318 10 7.65361 10.0702 7.52859 10.1953C7.40356 10.3203 7.33332 10.4899 7.33332 10.6667Z" stroke="#0052B4" stroke-width="1.3" stroke-linecap="round" stroke-linejoin="round"/>
</svg>
