<svg width="16" height="16" viewBox="0 0 16 16" fill="none" xmlns="http://www.w3.org/2000/svg">
<path d="M2 4.66666C2 4.31304 2.14048 3.9739 2.39052 3.72385C2.64057 3.4738 2.97971 3.33333 3.33333 3.33333H12.6667C13.0203 3.33333 13.3594 3.4738 13.6095 3.72385C13.8595 3.9739 14 4.31304 14 4.66666M2 4.66666V11.3333C2 11.687 2.14048 12.0261 2.39052 12.2761C2.64057 12.5262 2.97971 12.6667 3.33333 12.6667H12.6667C13.0203 12.6667 13.3594 12.5262 13.6095 12.2761C13.8595 12.0261 14 11.687 14 11.3333V4.66666M2 4.66666L8 8.66666L14 4.66666" stroke="#0052B4" stroke-width="1.3" stroke-linecap="round" stroke-linejoin="round"/>
</svg>
