<svg width="16" height="16" viewBox="0 0 16 16" fill="none" xmlns="http://www.w3.org/2000/svg">
<path d="M5.33334 7.33333V4.66667C5.33334 3.95942 5.6143 3.28115 6.11439 2.78105C6.61449 2.28095 7.29277 2 8.00001 2C8.70725 2 9.38553 2.28095 9.88563 2.78105C10.3857 3.28115 10.6667 3.95942 10.6667 4.66667V7.33333M3.33334 8.66667C3.33334 8.31304 3.47382 7.97391 3.72387 7.72386C3.97392 7.47381 4.31305 7.33333 4.66668 7.33333H11.3333C11.687 7.33333 12.0261 7.47381 12.2762 7.72386C12.5262 7.97391 12.6667 8.31304 12.6667 8.66667V12.6667C12.6667 13.0203 12.5262 13.3594 12.2762 13.6095C12.0261 13.8595 11.687 14 11.3333 14H4.66668C4.31305 14 3.97392 13.8595 3.72387 13.6095C3.47382 13.3594 3.33334 13.0203 3.33334 12.6667V8.66667ZM7.33334 10.6667C7.33334 10.8435 7.40358 11.013 7.52861 11.1381C7.65363 11.2631 7.8232 11.3333 8.00001 11.3333C8.17682 11.3333 8.34639 11.2631 8.47141 11.1381C8.59644 11.013 8.66668 10.8435 8.66668 10.6667C8.66668 10.4899 8.59644 10.3203 8.47141 10.1953C8.34639 10.0702 8.17682 10 8.00001 10C7.8232 10 7.65363 10.0702 7.52861 10.1953C7.40358 10.3203 7.33334 10.4899 7.33334 10.6667Z" stroke="#0052B4" stroke-width="1.3" stroke-linecap="round" stroke-linejoin="round"/>
</svg>
