<svg width="29" height="28" viewBox="0 0 29 28" fill="none" xmlns="http://www.w3.org/2000/svg">
<path d="M14.5 28C22.2322 28 28.5 21.7322 28.5 14V4.2C28.5 3.08609 28.0575 2.0178 27.2699 1.23015C26.4822 0.442499 25.4139 0 24.3 0H15.2V6.1418C15.2 7.5432 15.2854 8.995 16.0204 10.1878C16.5466 11.0426 17.2505 11.7743 18.0844 12.3332C18.9182 12.892 19.8625 13.265 20.8532 13.4267L21.1213 13.4701C21.2319 13.5079 21.3278 13.5793 21.3957 13.6743C21.4637 13.7693 21.5002 13.8832 21.5002 14C21.5002 14.1168 21.4637 14.2307 21.3957 14.3257C21.3278 14.4207 21.2319 14.4921 21.1213 14.5299L20.8532 14.5733C19.4058 14.8098 18.0691 15.4949 17.032 16.532C15.9949 17.5691 15.3098 18.9057 15.0733 20.3532L15.0299 20.6213C14.9922 20.7318 14.9208 20.8278 14.8257 20.8957C14.7307 20.9636 14.6168 21.0002 14.5 21.0002C14.3832 21.0002 14.2693 20.9636 14.1743 20.8957C14.0793 20.8278 14.0079 20.7318 13.9701 20.6213L13.9267 20.3532C13.7649 19.3625 13.392 18.4182 12.8331 17.5844C12.2743 16.7505 11.5427 16.0466 10.6878 15.5204C9.49503 14.7854 8.04323 14.7 6.64183 14.7H0.516833C0.882934 22.1067 7.00303 28 14.5 28Z" fill="white"/>
<path d="M0.5 13.3001H6.6418C8.0432 13.3001 9.495 13.2147 10.6878 12.4797C11.6202 11.9052 12.4051 11.1203 12.9796 10.1879C13.7146 8.99508 13.8 7.54328 13.8 6.14188V8.46032e-05H4.7C3.58609 8.46032e-05 2.5178 0.442583 1.73015 1.23024C0.942499 2.01789 0.5 3.08618 0.5 4.20008V13.3001Z" fill="white"/>
</svg>
