<svg width="11" height="16" viewBox="0 0 11 16" fill="none" xmlns="http://www.w3.org/2000/svg">
<path d="M5 2H6.5M5.75 11.75V11.7575M1.25 2.75C1.25 2.35218 1.40804 1.97064 1.68934 1.68934C1.97064 1.40804 2.35218 1.25 2.75 1.25H8.75C9.14782 1.25 9.52936 1.40804 9.81066 1.68934C10.092 1.97064 10.25 2.35218 10.25 2.75V13.25C10.25 13.6478 10.092 14.0294 9.81066 14.3107C9.52936 14.592 9.14782 14.75 8.75 14.75H2.75C2.35218 14.75 1.97064 14.592 1.68934 14.3107C1.40804 14.0294 1.25 13.6478 1.25 13.25V2.75Z" stroke="#04070E" stroke-width="1.5" stroke-linecap="round" stroke-linejoin="round"/>
</svg>
