<svg width="16" height="16" viewBox="0 0 16 16" fill="none" xmlns="http://www.w3.org/2000/svg">
<path d="M4.11198 12.566C4.27699 12.0168 4.61462 11.5355 5.07481 11.1933C5.535 10.8512 6.09321 10.6665 6.66665 10.6667H9.33331C9.90749 10.6665 10.4664 10.8516 10.9269 11.1945C11.3874 11.5374 11.725 12.0199 11.8893 12.57M2 8C2 8.78793 2.15519 9.56815 2.45672 10.2961C2.75825 11.0241 3.20021 11.6855 3.75736 12.2426C4.31451 12.7998 4.97595 13.2417 5.7039 13.5433C6.43185 13.8448 7.21207 14 8 14C8.78793 14 9.56815 13.8448 10.2961 13.5433C11.0241 13.2417 11.6855 12.7998 12.2426 12.2426C12.7998 11.6855 13.2417 11.0241 13.5433 10.2961C13.8448 9.56815 14 8.78793 14 8C14 7.21207 13.8448 6.43185 13.5433 5.7039C13.2417 4.97595 12.7998 4.31451 12.2426 3.75736C11.6855 3.20021 11.0241 2.75825 10.2961 2.45672C9.56815 2.15519 8.78793 2 8 2C7.21207 2 6.43185 2.15519 5.7039 2.45672C4.97595 2.75825 4.31451 3.20021 3.75736 3.75736C3.20021 4.31451 2.75825 4.97595 2.45672 5.7039C2.15519 6.43185 2 7.21207 2 8ZM6 6.66667C6 7.1971 6.21071 7.70581 6.58579 8.08088C6.96086 8.45595 7.46957 8.66667 8 8.66667C8.53043 8.66667 9.03914 8.45595 9.41421 8.08088C9.78929 7.70581 10 7.1971 10 6.66667C10 6.13623 9.78929 5.62753 9.41421 5.25245C9.03914 4.87738 8.53043 4.66667 8 4.66667C7.46957 4.66667 6.96086 4.87738 6.58579 5.25245C6.21071 5.62753 6 6.13623 6 6.66667Z" stroke="#0052B4" stroke-width="1.3" stroke-linecap="round" stroke-linejoin="round"/>
</svg>
